# xmcd CD database file
#
# Track frame offsets:
#	150
#	16554
#	35983
#	50865
#	70005
#	85359
#	101211
#	122470
#	140778
#	152132
#	168396
#	185356
#	204077
#	221884
#	239869
#	257451
#	277433
#	294246
#	309127
#	330351
#
# Disc length: 4634 seconds
#
# Revision: 0
# Processed by: cddbd v1.5.2PL0 Copyright (c) Steve Scherf et al.
# Submitted via: CDex 1.51
#
DISCID=2c121814
DTITLE=The Real Book Play-Along - Volume I E-K CD3
DYEAR=1900
DGENRE=Jazz
TTITLE0=I Sould Care
TTITLE1=I'll Never Smile Again
TTITLE2=I'll Remember April
TTITLE3=I'm Begninning to See the Light
TTITLE4=Impressions
TTITLE5=In a Mellow Tone
TTITLE6=In a Sentimental Mood
TTITLE7=In the Mood
TTITLE8=In the Wee Small Hours of the Morning
TTITLE9=The Inch Worm
TTITLE10=Invitation
TTITLE11=Is You Is, Or Is You Ain't (Ma' Baby)
TTITLE12=Isn't It Romantic
TTITLE13=Israel
TTITLE14=It Don't Mean a Thing (If It Ain't Got That Swing)
TTITLE15=It's Easy to Remember
TTITLE16=Jordu
TTITLE17=Juju
TTITLE18=June in January
TTITLE19=Just One More Chance
EXTD=
EXTT0=
EXTT1=
EXTT2=
EXTT3=
EXTT4=
EXTT5=
EXTT6=
EXTT7=
EXTT8=
EXTT9=
EXTT10=
EXTT11=
EXTT12=
EXTT13=
EXTT14=
EXTT15=
EXTT16=
EXTT17=
EXTT18=
EXTT19=
PLAYORDER=
